<?xml version="1.0" encoding="UTF-8"?>
<svg height="128px" viewBox="0 0 128 128" width="128px" xmlns="http://www.w3.org/2000/svg" xmlns:xlink="http://www.w3.org/1999/xlink">
    <filter id="a" height="100%" width="100%" x="0%" y="0%">
        <feColorMatrix color-interpolation-filters="sRGB" values="0 0 0 0 1 0 0 0 0 1 0 0 0 0 1 0 0 0 1 0"/>
    </filter>
    <linearGradient id="b" gradientTransform="matrix(0.232143 0 0 0.328947 -8.66922 264.003484)" gradientUnits="userSpaceOnUse" x1="88.595886" x2="536.595886" y1="-449.394012" y2="-449.394012">
        <stop offset="0" stop-color="#77767b"/>
        <stop offset="0.0384615" stop-color="#c0bfbc"/>
        <stop offset="0.0768555" stop-color="#9a9996"/>
        <stop offset="0.923077" stop-color="#9a9996"/>
        <stop offset="0.961538" stop-color="#c0bfbc"/>
        <stop offset="1" stop-color="#77767b"/>
    </linearGradient>
    <linearGradient id="c" gradientUnits="userSpaceOnUse">
        <stop offset="0"/>
        <stop offset="1" stop-opacity="0"/>
    </linearGradient>
    <linearGradient id="d" x1="64.84919349079" x2="64.84919349079" xlink:href="#c" y1="32.45995741942" y2="15.80795651354"/>
    <linearGradient id="e" gradientTransform="matrix(0.845871 0 0 -0.845871 -43.889656 358.53962)" x1="128.552521" x2="128.552521" xlink:href="#c" y1="321.325958" y2="294.341492"/>
    <clipPath id="f">
        <path d="m 20 0 h 88 v 37 h -88 z m 0 0"/>
    </clipPath>
    <clipPath id="g">
        <rect height="128" width="128"/>
    </clipPath>
    <clipPath id="h">
        <rect height="128" width="128"/>
    </clipPath>
    <mask id="i">
        <g filter="url(#a)">
            <g clip-path="url(#h)" filter="url(#a)">
                <g clip-path="url(#g)">
                    <path d="m 19.898438 16.175781 h 88 c 4.417968 0 8 3.582031 8 8 v 84 c 0 4.417969 -3.582032 8 -8 8 h -88 c -4.417969 0 -8 -3.582031 -8 -8 v -84 c 0 -4.417969 3.582031 -8 8 -8 z m 0 0" fill="url(#b)"/>
                    <path d="m 19.898438 12.175781 h 88 c 4.417968 0 8 3.582031 8 8 v 84 c 0 4.417969 -3.582032 8 -8 8 h -88 c -4.417969 0 -8 -3.582031 -8 -8 v -84 c 0 -4.417969 3.582031 -8 8 -8 z m 0 0" fill="#deddda"/>
                    <path d="m 65.127887 429.488591 h 145.768439 c 16.569909 0 30.003127 13.433219 30.003127 30.003127 v 24.090174 c 0 16.569908 -13.433218 30.003127 -30.003127 30.003127 h -145.768439 c -16.569909 0 -29.993386 -13.433219 -29.993386 -30.003127 v -24.090174 c 0 -16.569908 13.423477 -30.003127 29.993386 -30.003127 z m 0 0" fill="none" stroke="#000000" stroke-linecap="round" stroke-width="9.3" transform="matrix(0.401 0 0 0.401 8.684507 -129.486587)"/>
                    <path d="m 107.298586 301.265554 l -5.998808 3.154108 l 5.998808 3.17258 l -1.371552 2.581474 l -6.077315 -3.361919 v 6.266654 h -3.094074 v -6.266654 l -6.095787 3.361919 l -1.37617 -2.581474 l 6.077315 -3.17258 l -6.077315 -3.154108 l 1.37617 -2.563002 l 6.095787 3.311121 v -6.262036 h 3.094074 v 6.262036 l 6.077315 -3.311121 z m 19.524992 0 l -5.998809 3.154108 l 5.998809 3.17258 l -1.37617 2.581474 l -6.077315 -3.361919 v 6.266654 h -3.094074 v -6.266654 l -6.09117 3.361919 l -1.37617 -2.581474 l 6.077315 -3.17258 l -6.077315 -3.154108 l 1.37617 -2.563002 l 6.09117 3.311121 v -6.262036 h 3.094074 v 6.262036 l 6.077315 -3.311121 z m 19.524991 0 l -5.998808 3.154108 l 5.998808 3.17258 l -1.37617 2.581474 l -6.077315 -3.361919 v 6.266654 h -3.094074 v -6.266654 l -6.095787 3.361919 l -1.371552 -2.581474 l 6.077315 -3.17258 l -6.077315 -3.154108 l 1.371552 -2.563002 l 6.095787 3.311121 v -6.262036 h 3.094074 v 6.262036 l 6.077315 -3.311121 z m 19.520374 0 l -5.998809 3.154108 l 5.998809 3.17258 l -1.371552 2.581474 l -6.077315 -3.361919 v 6.266654 h -3.094074 v -6.266654 l -6.095788 3.361919 l -1.37617 -2.581474 l 6.077315 -3.17258 l -6.077315 -3.154108 l 1.37617 -2.563002 l 6.095788 3.311121 v -6.262036 h 3.094074 v 6.262036 l 6.077315 -3.311121 z m -77.333375 -12.464038" stroke="#030000" stroke-linecap="round" stroke-linejoin="bevel" stroke-width="0.4" transform="matrix(0.845871 0 0 0.845871 -43.889674 -197.89431)"/>
                    <g clip-path="url(#f)">
                        <path d="m 96.425781 15.492188 l -5.089843 2.667968 l 5.089843 2.683594 l -1.171875 2.175781 l -5.136718 -2.839843 v 5.304687 h -2.621094 v -5.304687 l -5.148438 2.839843 l -1.171875 -2.175781 l 5.148438 -2.683594 l -5.148438 -2.667968 l 1.171875 -2.171876 l 5.148438 2.804688 v -5.304688 h 2.621094 v 5.304688 l 5.136718 -2.804688 z m -16.515625 0 l -5.089844 2.667968 l 5.089844 2.683594 l -1.171875 2.175781 l -5.132812 -2.839843 v 5.304687 h -2.621094 v -5.304687 l -5.152344 2.839843 l -1.171875 -2.175781 l 5.152344 -2.683594 l -5.152344 -2.667968 l 1.171875 -2.171876 l 5.152344 2.804688 v -5.304688 h 2.621094 v 5.304688 l 5.132812 -2.804688 z m -16.515625 0 l -5.085937 2.667968 l 5.085937 2.683594 l -1.171875 2.175781 l -5.132812 -2.839843 v 5.304687 h -2.621094 v -5.304687 l -5.152344 2.839843 l -1.171875 -2.175781 l 5.152344 -2.683594 l -5.152344 -2.667968 l 1.171875 -2.171876 l 5.152344 2.804688 v -5.304688 h 2.621094 v 5.304688 l 5.132812 -2.804688 z m -16.511719 0 l -5.089843 2.667968 l 5.089843 2.683594 l -1.171874 2.175781 l -5.136719 -2.839843 v 5.304687 h -2.621094 v -5.304687 l -5.148437 2.839843 l -1.171876 -2.175781 l 5.148438 -2.683594 l -5.148438 -2.667968 l 1.171876 -2.171876 l 5.148437 2.804688 v -5.304688 h 2.621094 v 5.304688 l 5.136719 -2.804688 z m -12.082031 -16.0625 c -7.664062 0 -13.894531 6.230468 -13.894531 13.894531 v 9.660156 c 0 7.664063 6.230469 13.894531 13.894531 13.894531 h 58.453125 c 7.667969 0 13.894532 -6.230468 13.894532 -13.894531 v -9.660156 c 0 -7.664063 -6.226563 -13.894531 -13.894532 -13.894531 z m 0 3.730468 h 58.453125 c 5.664063 0 10.164063 4.5 10.164063 10.164063 v 9.660156 c 0 5.664063 -4.5 10.164063 -10.164063 10.164063 h -58.453125 c -5.664062 0 -10.164062 -4.5 -10.164062 -10.164063 v -9.660156 c 0 -5.664063 4.5 -10.164063 10.164062 -10.164063 z m 0 0" fill="url(#d)"/>
                    </g>
                    <path d="m 96.425781 103.707031 l -5.089843 -2.667969 l 5.089843 -2.683593 l -1.171875 -2.175781 l -5.136718 2.839843 v -5.304687 h -2.621094 v 5.304687 l -5.148438 -2.839843 l -1.171875 2.175781 l 5.148438 2.683593 l -5.148438 2.667969 l 1.171875 2.171875 l 5.148438 -2.804687 v 5.304687 h 2.621094 v -5.304687 l 5.136718 2.804687 z m -16.515625 0 l -5.089844 -2.667969 l 5.089844 -2.683593 l -1.171875 -2.175781 l -5.132812 2.839843 v -5.304687 h -2.621094 v 5.304687 l -5.152344 -2.839843 l -1.171875 2.175781 l 5.152344 2.683593 l -5.152344 2.667969 l 1.171875 2.171875 l 5.152344 -2.804687 v 5.304687 h 2.621094 v -5.304687 l 5.132812 2.804687 z m -16.515625 0 l -5.085937 -2.667969 l 5.085937 -2.683593 l -1.171875 -2.175781 l -5.132812 2.839843 v -5.304687 h -2.621094 v 5.304687 l -5.152344 -2.839843 l -1.171875 2.175781 l 5.152344 2.683593 l -5.152344 2.667969 l 1.171875 2.171875 l 5.152344 -2.804687 v 5.304687 h 2.621094 v -5.304687 l 5.132812 2.804687 z m -16.511719 0 l -5.089843 -2.667969 l 5.089843 -2.683593 l -1.171874 -2.175781 l -5.136719 2.839843 v -5.304687 h -2.621094 v 5.304687 l -5.148437 -2.839843 l -1.171876 2.175781 l 5.148438 2.683593 l -5.148438 2.667969 l 1.171876 2.171875 l 5.148437 -2.804687 v 5.304687 h 2.621094 v -5.304687 l 5.136719 2.804687 z m -12.082031 16.0625 c -7.664062 0 -13.894531 -6.230469 -13.894531 -13.894531 v -9.660156 c 0 -7.664063 6.230469 -13.894532 13.894531 -13.894532 h 58.453125 c 7.667969 0 13.894532 6.230469 13.894532 13.894532 v 9.660156 c 0 7.664062 -6.226563 13.894531 -13.894532 13.894531 z m 0 -3.730469 h 58.453125 c 5.664063 0 10.164063 -4.5 10.164063 -10.164062 v -9.660156 c 0 -5.664063 -4.5 -10.164063 -10.164063 -10.164063 h -58.453125 c -5.664062 0 -10.164062 4.5 -10.164062 10.164063 v 9.660156 c 0 5.664062 4.5 10.164062 10.164062 10.164062 z m 0 0" fill="url(#e)"/>
                </g>
            </g>
        </g>
    </mask>
    <mask id="j">
        <g filter="url(#a)">
            <rect fill-opacity="0.8" height="184.32" width="184.32" x="-28.16" y="-28.16"/>
        </g>
    </mask>
    <linearGradient id="k" gradientTransform="matrix(0 0.37 -0.98462 0 295.38501 -30.360001)" gradientUnits="userSpaceOnUse" x1="300" x2="428" y1="235" y2="235">
        <stop offset="0" stop-color="#f9f06b"/>
        <stop offset="1" stop-color="#f5c211"/>
    </linearGradient>
    <clipPath id="l">
        <rect height="128" width="128"/>
    </clipPath>
    <clipPath id="m">
        <rect height="128" width="128"/>
    </clipPath>
    <path d="m 19.898438 16.175781 h 88 c 4.417968 0 8 3.582031 8 8 v 84 c 0 4.417969 -3.582032 8 -8 8 h -88 c -4.417969 0 -8 -3.582031 -8 -8 v -84 c 0 -4.417969 3.582031 -8 8 -8 z m 0 0" fill="url(#b)"/>
    <path d="m 19.898438 12.175781 h 88 c 4.417968 0 8 3.582031 8 8 v 84 c 0 4.417969 -3.582032 8 -8 8 h -88 c -4.417969 0 -8 -3.582031 -8 -8 v -84 c 0 -4.417969 3.582031 -8 8 -8 z m 0 0" fill="#deddda"/>
    <path d="m 34.800789687 42.738337991 h 58.453144039 c 6.644533509 0 12.031253927 5.386720819 12.031253927 12.031253927 v 9.660159774 c 0 6.644533108 -5.386720418 12.031253927 -12.031253927 12.031253927 h -58.453144039 c -6.644533509 0 -12.027347786 -5.386720819 -12.027347786 -12.031253927 v -9.660159774 c 0 -6.644533108 5.382814277 -12.031253927 12.027347786 -12.031253927 z m 0 0" fill="none" stroke="#000000" stroke-linecap="round" stroke-width="3.7293"/>
    <path d="m 46.87108823841 56.93748542753 l -5.07421772177 2.66796848807 l 5.07421772177 2.68359341718 l -1.16015606179 2.18359399385 l -5.14062451637 -2.84374978645 v 5.30078088563 h -2.61718746845 v -5.30078088563 l -5.15624944548 2.84374978645 l -1.16406229407 -2.18359399385 l 5.14062451637 -2.68359341718 l -5.14062451637 -2.66796848807 l 1.16406229407 -2.16796906474 l 5.15624944548 2.80078123139 v -5.29687465336 h 2.61718746845 v 5.29687465336 l 5.14062451637 -2.80078123139 z m 16.51562450803 0 l -5.07421856764 2.66796848807 l 5.07421856764 2.68359341718 l -1.16406229407 2.18359399385 l -5.14062451636 -2.84374978645 v 5.30078088563 h -2.61718746845 v -5.30078088563 l -5.15234405907 2.84374978645 l -1.16406229407 -2.18359399385 l 5.14062451636 -2.68359341718 l -5.14062451636 -2.66796848807 l 1.16406229407 -2.16796906474 l 5.15234405907 2.80078123139 v -5.29687465336 h 2.61718746845 v 5.29687465336 l 5.14062451636 -2.80078123139 z m 16.51562366216 0 l -5.07421772177 2.66796848807 l 5.07421772177 2.68359341718 l -1.16406229407 2.18359399385 l -5.14062451637 -2.84374978645 v 5.30078088563 h -2.61718746845 v -5.30078088563 l -5.15624944548 2.84374978645 l -1.16015606179 -2.18359399385 l 5.14062451637 -2.68359341718 l -5.14062451637 -2.66796848807 l 1.16015606179 -2.16796906474 l 5.15624944548 2.80078123139 v -5.29687465336 h 2.61718746845 v 5.29687465336 l 5.14062451637 -2.80078123139 z m 16.51171827575 0 l -5.07421856764 2.66796848807 l 5.07421856764 2.68359341718 l -1.16015606179 2.18359399385 l -5.14062451636 -2.84374978645 v 5.30078088563 h -2.61718746845 v -5.30078088563 l -5.15625029135 2.84374978645 l -1.16406229407 -2.18359399385 l 5.14062451636 -2.68359341718 l -5.14062451636 -2.66796848807 l 1.16406229407 -2.16796906474 l 5.15625029135 2.80078123139 v -5.29687465336 h 2.61718746845 v 5.29687465336 l 5.14062451636 -2.80078123139 z m -65.41405924463 -10.5429682871" stroke="#030000" stroke-linecap="round" stroke-linejoin="bevel" stroke-width="0.3383484"/>
    <path d="m 96.425781 15.492188 l -5.089843 2.667968 l 5.089843 2.683594 l -1.171875 2.175781 l -5.136718 -2.839843 v 5.304687 h -2.621094 v -5.304687 l -5.148438 2.839843 l -1.171875 -2.175781 l 5.148438 -2.683594 l -5.148438 -2.667968 l 1.171875 -2.171876 l 5.148438 2.804688 v -5.304688 h 2.621094 v 5.304688 l 5.136718 -2.804688 z m -16.515625 0 l -5.089844 2.667968 l 5.089844 2.683594 l -1.171875 2.175781 l -5.132812 -2.839843 v 5.304687 h -2.621094 v -5.304687 l -5.152344 2.839843 l -1.171875 -2.175781 l 5.152344 -2.683594 l -5.152344 -2.667968 l 1.171875 -2.171876 l 5.152344 2.804688 v -5.304688 h 2.621094 v 5.304688 l 5.132812 -2.804688 z m -16.515625 0 l -5.085937 2.667968 l 5.085937 2.683594 l -1.171875 2.175781 l -5.132812 -2.839843 v 5.304687 h -2.621094 v -5.304687 l -5.152344 2.839843 l -1.171875 -2.175781 l 5.152344 -2.683594 l -5.152344 -2.667968 l 1.171875 -2.171876 l 5.152344 2.804688 v -5.304688 h 2.621094 v 5.304688 l 5.132812 -2.804688 z m -16.511719 0 l -5.089843 2.667968 l 5.089843 2.683594 l -1.171874 2.175781 l -5.136719 -2.839843 v 5.304687 h -2.621094 v -5.304687 l -5.148437 2.839843 l -1.171876 -2.175781 l 5.148438 -2.683594 l -5.148438 -2.667968 l 1.171876 -2.171876 l 5.148437 2.804688 v -5.304688 h 2.621094 v 5.304688 l 5.136719 -2.804688 z m -12.082031 -16.0625 c -7.664062 0 -13.894531 6.230468 -13.894531 13.894531 v 9.660156 c 0 7.664063 6.230469 13.894531 13.894531 13.894531 h 58.453125 c 7.667969 0 13.894532 -6.230468 13.894532 -13.894531 v -9.660156 c 0 -7.664063 -6.226563 -13.894531 -13.894532 -13.894531 z m 0 3.730468 h 58.453125 c 5.664063 0 10.164063 4.5 10.164063 10.164063 v 9.660156 c 0 5.664063 -4.5 10.164063 -10.164063 10.164063 h -58.453125 c -5.664062 0 -10.164062 -4.5 -10.164062 -10.164063 v -9.660156 c 0 -5.664063 4.5 -10.164063 10.164062 -10.164063 z m 0 0" fill="url(#d)"/>
    <path d="m 96.425781 103.707031 l -5.089843 -2.667969 l 5.089843 -2.683593 l -1.171875 -2.175781 l -5.136718 2.839843 v -5.304687 h -2.621094 v 5.304687 l -5.148438 -2.839843 l -1.171875 2.175781 l 5.148438 2.683593 l -5.148438 2.667969 l 1.171875 2.171875 l 5.148438 -2.804687 v 5.304687 h 2.621094 v -5.304687 l 5.136718 2.804687 z m -16.515625 0 l -5.089844 -2.667969 l 5.089844 -2.683593 l -1.171875 -2.175781 l -5.132812 2.839843 v -5.304687 h -2.621094 v 5.304687 l -5.152344 -2.839843 l -1.171875 2.175781 l 5.152344 2.683593 l -5.152344 2.667969 l 1.171875 2.171875 l 5.152344 -2.804687 v 5.304687 h 2.621094 v -5.304687 l 5.132812 2.804687 z m -16.515625 0 l -5.085937 -2.667969 l 5.085937 -2.683593 l -1.171875 -2.175781 l -5.132812 2.839843 v -5.304687 h -2.621094 v 5.304687 l -5.152344 -2.839843 l -1.171875 2.175781 l 5.152344 2.683593 l -5.152344 2.667969 l 1.171875 2.171875 l 5.152344 -2.804687 v 5.304687 h 2.621094 v -5.304687 l 5.132812 2.804687 z m -16.511719 0 l -5.089843 -2.667969 l 5.089843 -2.683593 l -1.171874 -2.175781 l -5.136719 2.839843 v -5.304687 h -2.621094 v 5.304687 l -5.148437 -2.839843 l -1.171876 2.175781 l 5.148438 2.683593 l -5.148438 2.667969 l 1.171876 2.171875 l 5.148437 -2.804687 v 5.304687 h 2.621094 v -5.304687 l 5.136719 2.804687 z m -12.082031 16.0625 c -7.664062 0 -13.894531 -6.230469 -13.894531 -13.894531 v -9.660156 c 0 -7.664063 6.230469 -13.894532 13.894531 -13.894532 h 58.453125 c 7.667969 0 13.894532 6.230469 13.894532 13.894532 v 9.660156 c 0 7.664062 -6.226563 13.894531 -13.894532 13.894531 z m 0 -3.730469 h 58.453125 c 5.664063 0 10.164063 -4.5 10.164063 -10.164062 v -9.660156 c 0 -5.664063 -4.5 -10.164063 -10.164063 -10.164063 h -58.453125 c -5.664062 0 -10.164062 4.5 -10.164062 10.164063 v 9.660156 c 0 5.664062 4.5 10.164062 10.164062 10.164062 z m 0 0" fill="url(#e)"/>
    <g mask="url(#i)">
        <g clip-path="url(#m)">
            <g mask="url(#j)">
                <g clip-path="url(#l)">
                    <path d="m 128 80.640625 v 47.359375 h -128 v -47.359375 z m 0 0" fill="url(#k)"/>
                    <path d="m 13.308594 80.640625 l 47.355468 47.359375 h 21.214844 l -47.359375 -47.359375 z m 42.421875 0 l 47.363281 47.359375 h 21.214844 l -47.363282 -47.359375 z m 42.429687 0 l 29.839844 29.839844 v -21.210938 l -8.628906 -8.628906 z m -98.160156 7.90625 v 21.214844 l 18.238281 18.238281 h 21.214844 z m 0 0"/>
                </g>
            </g>
        </g>
    </g>
</svg>
