<?xml version="1.0" encoding="UTF-8"?>
<svg height="16px" viewBox="0 0 16 16" width="16px" xmlns="http://www.w3.org/2000/svg">
    <path d="m 3.140625 1.238281 c -1.28125 0 -2.320313 1.039063 -2.320313 2.320313 v 1.613281 c 0 1.277344 1.039063 2.316406 2.320313 2.316406 h 9.753906 c 1.28125 0 2.320313 -1.039062 2.320313 -2.316406 v -1.613281 c 0 -1.28125 -1.039063 -2.320313 -2.320313 -2.320313 z m 0 0.621094 h 9.753906 c 0.945313 0 1.695313 0.753906 1.695313 1.699219 v 1.613281 c 0 0.945313 -0.75 1.695313 -1.695313 1.695313 h -9.753906 c -0.945313 0 -1.699219 -0.75 -1.699219 -1.695313 v -1.613281 c 0 -0.945313 0.753906 -1.699219 1.699219 -1.699219 z m 0 0"/>
    <path d="m 5.15625 3.917969 l -0.851562 0.445312 l 0.851562 0.449219 l -0.195312 0.363281 l -0.859376 -0.472656 v 0.882813 h -0.4375 v -0.882813 l -0.859374 0.472656 l -0.195313 -0.363281 l 0.859375 -0.449219 l -0.859375 -0.445312 l 0.195313 -0.359375 l 0.859374 0.46875 v -0.886719 h 0.4375 v 0.886719 l 0.859376 -0.46875 z m 0 0"/>
    <path d="m 7.910156 3.917969 l -0.847656 0.445312 l 0.847656 0.449219 l -0.195312 0.363281 l -0.855469 -0.472656 v 0.882813 h -0.4375 v -0.882813 l -0.859375 0.472656 l -0.195312 -0.363281 l 0.859374 -0.449219 l -0.859374 -0.445312 l 0.195312 -0.359375 l 0.859375 0.46875 v -0.886719 h 0.4375 v 0.886719 l 0.855469 -0.46875 z m 0 0"/>
    <path d="m 10.667969 3.917969 l -0.851563 0.445312 l 0.851563 0.449219 l -0.195313 0.363281 l -0.859375 -0.472656 v 0.882813 h -0.4375 v -0.882813 l -0.859375 0.472656 l -0.195312 -0.363281 l 0.859375 -0.449219 l -0.859375 -0.445312 l 0.195312 -0.359375 l 0.859375 0.46875 v -0.886719 h 0.4375 v 0.886719 l 0.859375 -0.46875 z m 0 0"/>
    <path d="m 13.421875 3.917969 l -0.847656 0.445312 l 0.847656 0.449219 l -0.195313 0.363281 l -0.855468 -0.472656 v 0.882813 h -0.4375 v -0.882813 l -0.859375 0.472656 l -0.195313 -0.363281 l 0.859375 -0.449219 l -0.859375 -0.445312 l 0.195313 -0.359375 l 0.859375 0.46875 v -0.886719 h 0.4375 v 0.886719 l 0.855468 -0.46875 z m 0 0"/>
    <path d="m 3.140625 8.152344 c -1.28125 0 -2.320313 1.039062 -2.320313 2.316406 v 1.613281 c 0 1.28125 1.039063 2.320313 2.320313 2.320313 h 9.753906 c 1.28125 0 2.320313 -1.039063 2.320313 -2.320313 v -1.613281 c 0 -1.277344 -1.039063 -2.316406 -2.320313 -2.316406 z m 0 0.621094 h 9.753906 c 0.945313 0 1.695313 0.75 1.695313 1.695312 v 1.613281 c 0 0.945313 -0.75 1.695313 -1.695313 1.695313 h -9.753906 c -0.945313 0 -1.699219 -0.75 -1.699219 -1.695313 v -1.613281 c 0 -0.945312 0.753906 -1.695312 1.699219 -1.695312 z m 0 0"/>
    <path d="m 5.15625 10.832031 l -0.851562 0.445313 l 0.851562 0.449218 l -0.195312 0.363282 l -0.859376 -0.476563 v 0.886719 h -0.4375 v -0.886719 l -0.859374 0.476563 l -0.195313 -0.363282 l 0.859375 -0.449218 l -0.859375 -0.445313 l 0.195313 -0.363281 l 0.859374 0.46875 v -0.886719 h 0.4375 v 0.886719 l 0.859376 -0.46875 z m 0 0"/>
    <path d="m 7.910156 10.832031 l -0.847656 0.445313 l 0.847656 0.449218 l -0.195312 0.363282 l -0.855469 -0.476563 v 0.886719 h -0.4375 v -0.886719 l -0.859375 0.476563 l -0.195312 -0.363282 l 0.859374 -0.449218 l -0.859374 -0.445313 l 0.195312 -0.363281 l 0.859375 0.46875 v -0.886719 h 0.4375 v 0.886719 l 0.855469 -0.46875 z m 0 0"/>
    <path d="m 10.667969 10.832031 l -0.851563 0.445313 l 0.851563 0.449218 l -0.195313 0.363282 l -0.859375 -0.476563 v 0.886719 h -0.4375 v -0.886719 l -0.859375 0.476563 l -0.195312 -0.363282 l 0.859375 -0.449218 l -0.859375 -0.445313 l 0.195312 -0.363281 l 0.859375 0.46875 v -0.886719 h 0.4375 v 0.886719 l 0.859375 -0.46875 z m 0 0"/>
    <path d="m 13.421875 10.832031 l -0.847656 0.445313 l 0.847656 0.449218 l -0.195313 0.363282 l -0.855468 -0.476563 v 0.886719 h -0.4375 v -0.886719 l -0.859375 0.476563 l -0.195313 -0.363282 l 0.859375 -0.449218 l -0.859375 -0.445313 l 0.195313 -0.363281 l 0.859375 0.46875 v -0.886719 h 0.4375 v 0.886719 l 0.855468 -0.46875 z m 0 0"/>
</svg>
