<?xml version="1.0" encoding="UTF-8"?>
<svg height="128px" viewBox="0 0 128 128" width="128px" xmlns="http://www.w3.org/2000/svg" xmlns:xlink="http://www.w3.org/1999/xlink">
    <linearGradient id="a" gradientTransform="matrix(0.232143 0 0 0.328947 -8.66922 264.003484)" gradientUnits="userSpaceOnUse" x1="88.595886" x2="536.595886" y1="-449.394012" y2="-449.394012">
        <stop offset="0" stop-color="#77767b"/>
        <stop offset="0.0384615" stop-color="#c0bfbc"/>
        <stop offset="0.0768555" stop-color="#9a9996"/>
        <stop offset="0.923077" stop-color="#9a9996"/>
        <stop offset="0.961538" stop-color="#c0bfbc"/>
        <stop offset="1" stop-color="#77767b"/>
    </linearGradient>
    <linearGradient id="b" gradientUnits="userSpaceOnUse">
        <stop offset="0"/>
        <stop offset="1" stop-opacity="0"/>
    </linearGradient>
    <linearGradient id="c" x1="64.84919349079" x2="64.84919349079" xlink:href="#b" y1="32.45995741942" y2="15.80795651354"/>
    <linearGradient id="d" gradientTransform="matrix(0.845871 0 0 -0.845871 -43.889656 358.53962)" x1="128.552521" x2="128.552521" xlink:href="#b" y1="321.325958" y2="294.341492"/>
    <path d="m 19.898438 16.175781 h 88 c 4.417968 0 8 3.582031 8 8 v 84 c 0 4.417969 -3.582032 8 -8 8 h -88 c -4.417969 0 -8 -3.582031 -8 -8 v -84 c 0 -4.417969 3.582031 -8 8 -8 z m 0 0" fill="url(#a)"/>
    <path d="m 19.898438 12.175781 h 88 c 4.417968 0 8 3.582031 8 8 v 84 c 0 4.417969 -3.582032 8 -8 8 h -88 c -4.417969 0 -8 -3.582031 -8 -8 v -84 c 0 -4.417969 3.582031 -8 8 -8 z m 0 0" fill="#deddda"/>
    <path d="m 34.800789687 42.738337991 h 58.453144039 c 6.644533509 0 12.031253927 5.386720819 12.031253927 12.031253927 v 9.660159774 c 0 6.644533108 -5.386720418 12.031253927 -12.031253927 12.031253927 h -58.453144039 c -6.644533509 0 -12.027347786 -5.386720819 -12.027347786 -12.031253927 v -9.660159774 c 0 -6.644533108 5.382814277 -12.031253927 12.027347786 -12.031253927 z m 0 0" fill="none" stroke="#000000" stroke-linecap="round" stroke-width="3.7293"/>
    <path d="m 46.87108823841 56.93748542753 l -5.07421772177 2.66796848807 l 5.07421772177 2.68359341718 l -1.16015606179 2.18359399385 l -5.14062451637 -2.84374978645 v 5.30078088563 h -2.61718746845 v -5.30078088563 l -5.15624944548 2.84374978645 l -1.16406229407 -2.18359399385 l 5.14062451637 -2.68359341718 l -5.14062451637 -2.66796848807 l 1.16406229407 -2.16796906474 l 5.15624944548 2.80078123139 v -5.29687465336 h 2.61718746845 v 5.29687465336 l 5.14062451637 -2.80078123139 z m 16.51562450803 0 l -5.07421856764 2.66796848807 l 5.07421856764 2.68359341718 l -1.16406229407 2.18359399385 l -5.14062451636 -2.84374978645 v 5.30078088563 h -2.61718746845 v -5.30078088563 l -5.15234405907 2.84374978645 l -1.16406229407 -2.18359399385 l 5.14062451636 -2.68359341718 l -5.14062451636 -2.66796848807 l 1.16406229407 -2.16796906474 l 5.15234405907 2.80078123139 v -5.29687465336 h 2.61718746845 v 5.29687465336 l 5.14062451636 -2.80078123139 z m 16.51562366216 0 l -5.07421772177 2.66796848807 l 5.07421772177 2.68359341718 l -1.16406229407 2.18359399385 l -5.14062451637 -2.84374978645 v 5.30078088563 h -2.61718746845 v -5.30078088563 l -5.15624944548 2.84374978645 l -1.16015606179 -2.18359399385 l 5.14062451637 -2.68359341718 l -5.14062451637 -2.66796848807 l 1.16015606179 -2.16796906474 l 5.15624944548 2.80078123139 v -5.29687465336 h 2.61718746845 v 5.29687465336 l 5.14062451637 -2.80078123139 z m 16.51171827575 0 l -5.07421856764 2.66796848807 l 5.07421856764 2.68359341718 l -1.16015606179 2.18359399385 l -5.14062451636 -2.84374978645 v 5.30078088563 h -2.61718746845 v -5.30078088563 l -5.15625029135 2.84374978645 l -1.16406229407 -2.18359399385 l 5.14062451636 -2.68359341718 l -5.14062451636 -2.66796848807 l 1.16406229407 -2.16796906474 l 5.15625029135 2.80078123139 v -5.29687465336 h 2.61718746845 v 5.29687465336 l 5.14062451636 -2.80078123139 z m -65.41405924463 -10.5429682871" stroke="#030000" stroke-linecap="round" stroke-linejoin="bevel" stroke-width="0.3383484"/>
    <path d="m 96.425781 15.492188 l -5.089843 2.667968 l 5.089843 2.683594 l -1.171875 2.175781 l -5.136718 -2.839843 v 5.304687 h -2.621094 v -5.304687 l -5.148438 2.839843 l -1.171875 -2.175781 l 5.148438 -2.683594 l -5.148438 -2.667968 l 1.171875 -2.171876 l 5.148438 2.804688 v -5.304688 h 2.621094 v 5.304688 l 5.136718 -2.804688 z m -16.515625 0 l -5.089844 2.667968 l 5.089844 2.683594 l -1.171875 2.175781 l -5.132812 -2.839843 v 5.304687 h -2.621094 v -5.304687 l -5.152344 2.839843 l -1.171875 -2.175781 l 5.152344 -2.683594 l -5.152344 -2.667968 l 1.171875 -2.171876 l 5.152344 2.804688 v -5.304688 h 2.621094 v 5.304688 l 5.132812 -2.804688 z m -16.515625 0 l -5.085937 2.667968 l 5.085937 2.683594 l -1.171875 2.175781 l -5.132812 -2.839843 v 5.304687 h -2.621094 v -5.304687 l -5.152344 2.839843 l -1.171875 -2.175781 l 5.152344 -2.683594 l -5.152344 -2.667968 l 1.171875 -2.171876 l 5.152344 2.804688 v -5.304688 h 2.621094 v 5.304688 l 5.132812 -2.804688 z m -16.511719 0 l -5.089843 2.667968 l 5.089843 2.683594 l -1.171874 2.175781 l -5.136719 -2.839843 v 5.304687 h -2.621094 v -5.304687 l -5.148437 2.839843 l -1.171876 -2.175781 l 5.148438 -2.683594 l -5.148438 -2.667968 l 1.171876 -2.171876 l 5.148437 2.804688 v -5.304688 h 2.621094 v 5.304688 l 5.136719 -2.804688 z m -12.082031 -16.0625 c -7.664062 0 -13.894531 6.230468 -13.894531 13.894531 v 9.660156 c 0 7.664063 6.230469 13.894531 13.894531 13.894531 h 58.453125 c 7.667969 0 13.894532 -6.230468 13.894532 -13.894531 v -9.660156 c 0 -7.664063 -6.226563 -13.894531 -13.894532 -13.894531 z m 0 3.730468 h 58.453125 c 5.664063 0 10.164063 4.5 10.164063 10.164063 v 9.660156 c 0 5.664063 -4.5 10.164063 -10.164063 10.164063 h -58.453125 c -5.664062 0 -10.164062 -4.5 -10.164062 -10.164063 v -9.660156 c 0 -5.664063 4.5 -10.164063 10.164062 -10.164063 z m 0 0" fill="url(#c)"/>
    <path d="m 96.425781 103.707031 l -5.089843 -2.667969 l 5.089843 -2.683593 l -1.171875 -2.175781 l -5.136718 2.839843 v -5.304687 h -2.621094 v 5.304687 l -5.148438 -2.839843 l -1.171875 2.175781 l 5.148438 2.683593 l -5.148438 2.667969 l 1.171875 2.171875 l 5.148438 -2.804687 v 5.304687 h 2.621094 v -5.304687 l 5.136718 2.804687 z m -16.515625 0 l -5.089844 -2.667969 l 5.089844 -2.683593 l -1.171875 -2.175781 l -5.132812 2.839843 v -5.304687 h -2.621094 v 5.304687 l -5.152344 -2.839843 l -1.171875 2.175781 l 5.152344 2.683593 l -5.152344 2.667969 l 1.171875 2.171875 l 5.152344 -2.804687 v 5.304687 h 2.621094 v -5.304687 l 5.132812 2.804687 z m -16.515625 0 l -5.085937 -2.667969 l 5.085937 -2.683593 l -1.171875 -2.175781 l -5.132812 2.839843 v -5.304687 h -2.621094 v 5.304687 l -5.152344 -2.839843 l -1.171875 2.175781 l 5.152344 2.683593 l -5.152344 2.667969 l 1.171875 2.171875 l 5.152344 -2.804687 v 5.304687 h 2.621094 v -5.304687 l 5.132812 2.804687 z m -16.511719 0 l -5.089843 -2.667969 l 5.089843 -2.683593 l -1.171874 -2.175781 l -5.136719 2.839843 v -5.304687 h -2.621094 v 5.304687 l -5.148437 -2.839843 l -1.171876 2.175781 l 5.148438 2.683593 l -5.148438 2.667969 l 1.171876 2.171875 l 5.148437 -2.804687 v 5.304687 h 2.621094 v -5.304687 l 5.136719 2.804687 z m -12.082031 16.0625 c -7.664062 0 -13.894531 -6.230469 -13.894531 -13.894531 v -9.660156 c 0 -7.664063 6.230469 -13.894532 13.894531 -13.894532 h 58.453125 c 7.667969 0 13.894532 6.230469 13.894532 13.894532 v 9.660156 c 0 7.664062 -6.226563 13.894531 -13.894532 13.894531 z m 0 -3.730469 h 58.453125 c 5.664063 0 10.164063 -4.5 10.164063 -10.164062 v -9.660156 c 0 -5.664063 -4.5 -10.164063 -10.164063 -10.164063 h -58.453125 c -5.664062 0 -10.164062 4.5 -10.164062 10.164063 v 9.660156 c 0 5.664062 4.5 10.164062 10.164062 10.164062 z m 0 0" fill="url(#d)"/>
</svg>
